# xmcd
#
# Track frame offsets: 
#        150
#        13920
#        26985
#        40775
#
# Disc length: 731 seconds
#
# Revision: 1
# Processed by: cddbd v1.5PL3 Copyright (c) Steve Scherf et al.
# Submitted via: ExactAudioCopy v0.95a5
#
DISCID=2d02d904
DTITLE=Max - Can't Wait Until Tonight
DYEAR=2004
DGENRE=R&B
TTITLE0=Can't Wait Until Tonight (Radio Version)
TTITLE1=Can't Wait Until Tonight (Dry Wurlitzer Mix)
TTITLE2=Can't Wait Until Tonight (Instrumental)
TTITLE3=Can't Wait Until Tonight (Live Version)
EXTD=
EXTT0=
EXTT1=
EXTT2=
EXTT3=
PLAYORDER=
